# xmcd
#
# Track frame offsets: 
#        150
#        14700
#        32325
#        48863
#        63908
#        84136
#        101791
#        125671
#        144339
#        162204
#        177804
#        194934
#
# Disc length: 2757 seconds
#
# Revision: 0
# Processed by: cddbd v1.5.2PL0 Copyright (c) Steve Scherf et al.
# Submitted via: ExactAudioCopy v1.1
#
DISCID=9d0ac30c
DTITLE=Mick Clarke Band - All These Blues
DYEAR=1987
DGENRE=Electric Blues
TTITLE0=Shake For Me
TTITLE1=Play Some Blues Tonight
TTITLE2=All These Blues
TTITLE3=One Little Problem
TTITLE4=What's Wrong With Anna
TTITLE5=Ain't It Hard
TTITLE6=Slipaway
TTITLE7=The Coast Highway
TTITLE8=Remember
TTITLE9=Nothing To Lose
TTITLE10=Reaching Out
TTITLE11=Re-Heat
EXTD=
EXTT0=
EXTT1=
EXTT2=
EXTT3=
EXTT4=
EXTT5=
EXTT6=
EXTT7=
EXTT8=
EXTT9=
EXTT10=
EXTT11=
PLAYORDER=
